<svg width="24" height="24" viewBox="0 0 24 24" fill="none" xmlns="http://www.w3.org/2000/svg">
<path d="M10 4.34349L8.46443 2.80787C7.68338 2.02682 6.41705 2.02682 5.636 2.80787L2.80757 5.63629C2.02652 6.41734 2.02652 7.68367 2.80757 8.46472L4.34307 10.0002M19.6568 14.0002L21.1923 15.5358C21.9734 16.3168 21.9734 17.5832 21.1923 18.3642L18.3639 21.1926C17.5829 21.9737 16.3165 21.9737 15.5355 21.1926L14 19.6572M12 6.34324L17.6569 12.0001M6.34315 12.0001L12 17.657M2.80761 18.3641L5.63604 21.1925C6.41709 21.9735 7.68342 21.9735 8.46447 21.1925L21.1924 8.46456C21.9734 7.68352 21.9734 6.41719 21.1924 5.63614L18.364 2.80771C17.5829 2.02666 16.3166 2.02666 15.5355 2.80771L2.80761 15.5356C2.02656 16.3167 2.02656 17.583 2.80761 18.3641Z" stroke="white" stroke-width="1.5" stroke-linecap="round" stroke-linejoin="round"/>
</svg>
